<?xml version="1.0" encoding="iso-8859-1"?>
<!-- Generator: Adobe Illustrator 19.0.0, SVG Export Plug-In . SVG Version: 6.00 Build 0)  -->
<svg version="1.1" id="Layer_1" xmlns="http://www.w3.org/2000/svg" xmlns:xlink="http://www.w3.org/1999/xlink" x="0px" y="0px"
	 viewBox="0 0 512 512" style="enable-background:new 0 0 512 512;" xml:space="preserve">
<g>
	<g>
		<path d="M488.22,75.724H23.78c-0.669,0-1.327,0.046-1.982,0.1L44.095,90.85c1.311,0.506,2.589,1.148,3.802,1.966l208.104,140.243
			L464.103,92.816c0.002-0.002,0.003-0.002,0.005-0.003l25.27-17.03C488.992,75.764,488.611,75.724,488.22,75.724z"/>
	</g>
</g>
<g>
	<g>
		<path d="M404.811,178.655l-138.181,93.122c-3.212,2.166-6.922,3.248-10.631,3.248s-7.419-1.083-10.631-3.248l-44.545-30.019
			c-1.332-0.509-2.627-1.175-3.859-2.005L0,107.014v305.481c0,13.133,10.647,23.78,23.78,23.78H488.22
			c13.133,0,23.78-10.647,23.78-23.78V106.42L404.811,178.655z"/>
	</g>
</g>
<g>
</g>
<g>
</g>
<g>
</g>
<g>
</g>
<g>
</g>
<g>
</g>
<g>
</g>
<g>
</g>
<g>
</g>
<g>
</g>
<g>
</g>
<g>
</g>
<g>
</g>
<g>
</g>
<g>
</g>
</svg>
